<svg fill="none" width="96" height="98" viewBox="0 0 96 98" xmlns="http://www.w3.org/2000/svg"><g clip-path="url(#clip0_25_36816)"><path d="M82.3974 80.0138C94.0982 66.7912 88.4825 42.169 69.8541 25.0184C51.2258 7.8679 26.6392 4.68362 14.9383 17.9061C3.23739 31.1287 8.85318 55.7509 27.4815 72.9015C46.1098 90.052 70.6965 93.2363 82.3974 80.0138Z" fill="#1B1B1C"></path><path d="M73.1372 86.3334C72.0929 85.2329 71.0001 84.1466 69.859 83.0955C55.2803 69.6713 37.0499 64.8038 24.207 69.6642" stroke="#2ECCFF" stroke-width="0.25" stroke-linecap="round" stroke-linejoin="round"></path><path d="M11.9932 50.8564C12.8092 49.3609 13.7913 47.9571 14.9324 46.6662C26.6342 33.4466 51.2202 36.628 69.8448 53.7769C77.0166 60.3796 82.2589 68.0899 85.3226 75.8284" stroke="#2ECCFF" stroke-width="0.25" stroke-linecap="round" stroke-linejoin="round"></path><path d="M11.7358 22.5762V50.2006" stroke="#2ECCFF" stroke-width="0.25" stroke-linecap="round" stroke-linejoin="round"></path><path d="M18.0981 14.959V62.173" stroke="#2ECCFF" stroke-width="0.25" stroke-linecap="round" stroke-linejoin="round"></path><path d="M84.9463 76.5187V46.0938" stroke="#2ECCFF" stroke-width="0.25" stroke-linecap="round" stroke-linejoin="round"></path><path d="M75.9131 85.0836V31.3867" stroke="#2ECCFF" stroke-width="0.25" stroke-linecap="round" stroke-linejoin="round"></path><path d="M34.3164 9.75195V78.4038" stroke="#2ECCFF" stroke-width="0.25" stroke-linecap="round" stroke-linejoin="round"></path><path d="M59.126 17.0039V88.026" stroke="#2ECCFF" stroke-width="0.25" stroke-linecap="round" stroke-linejoin="round"></path><path d="M82.3974 80.0138C94.0982 66.7912 88.4825 42.169 69.8541 25.0184C51.2258 7.8679 26.6392 4.68362 14.9383 17.9061C3.23739 31.1287 8.85318 55.7509 27.4815 72.9015C46.1098 90.052 70.6965 93.2363 82.3974 80.0138Z" stroke="#2ECCFF" stroke-width="0.25" stroke-linecap="round" stroke-linejoin="round"></path><mask id="mask0_25_36816" maskUnits="userSpaceOnUse" x="8" y="2" width="85" height="87" style="mask-type: luminance;"><path d="M14.9556 17.9051C3.25385 31.1247 8.86958 55.751 27.4942 72.8999C46.1187 90.0488 70.7048 93.2302 82.4065 80.0106C94.1083 66.7909 99.15 28.9802 80.5185 11.8314C61.8939 -5.3175 26.6504 4.67836 14.9487 17.9051H14.9556Z" fill="white"></path></mask><g mask="url(#mask0_25_36816)"><path d="M47.5277 70.7492L36.4346 66.4532L66.6364 15.6133L77.7226 19.9093L47.5277 70.7492Z" fill="#48FF91" stroke="#0500FF" stroke-width="0.25" stroke-linecap="round" stroke-linejoin="round"></path><path d="M51.0389 41.8743L66.5444 38.7422L64.6149 41.9801L49.1094 45.1192L51.0389 41.8743Z" fill="#0500FF" stroke="#0500FF" stroke-width="0.25" stroke-linecap="round" stroke-linejoin="round"></path><path d="M47.7006 47.4829L36.4346 66.4517L47.5277 70.7478L63.2061 44.3438L47.7006 47.4829Z" fill="#0500FF" stroke="#0500FF" stroke-width="0.25" stroke-linecap="round" stroke-linejoin="round"></path><path d="M77.7315 19.9102L84.0111 26.2519L47.1977 88.2234L29.4722 70.3056L36.0907 59.1811L47.5366 70.75L77.7315 19.9102Z" fill="#48FF91" stroke="#0500FF" stroke-width="0.25" stroke-linecap="round" stroke-linejoin="round"></path><path d="M47.1926 88.2224L36.0995 83.9263L18.3809 66.0156L29.4671 70.3046L47.1926 88.2224Z" fill="#0500FF" stroke="#0500FF" stroke-width="0.25" stroke-linecap="round" stroke-linejoin="round"></path><path d="M29.4671 70.3053L18.3809 66.0164L24.9925 54.8848L36.0856 59.1808L29.4671 70.3053Z" fill="#48FF91" stroke="#0500FF" stroke-width="0.25" stroke-linecap="round" stroke-linejoin="round"></path></g><path d="M14.9556 17.9062C3.25385 31.1259 8.86958 55.7522 27.4942 72.9011C46.1187 90.0499 70.7048 93.2314 82.4066 80.0118" stroke="#2ECCFF" stroke-width="0.25" stroke-linecap="round" stroke-linejoin="round"></path><path d="M28.8213 32.1719L26.3789 32.2387L28.2928 33.7576L30.7352 33.6908L28.8213 32.1719Z" fill="#48FF91" stroke="#0500FF" stroke-width="0.25" stroke-linecap="round" stroke-linejoin="round"></path><path d="M29.7961 29.0137L28.293 33.757L30.7354 33.6902L29.7961 29.0137Z" fill="#48FF91" stroke="#0500FF" stroke-width="0.25" stroke-linecap="round" stroke-linejoin="round"></path><path d="M29.7959 29.0137L28.2928 33.757L26.3789 32.2381L29.7959 29.0137Z" fill="#9EFF00" stroke="#0500FF" stroke-width="0.25" stroke-linecap="round" stroke-linejoin="round"></path><path d="M50.555 19.2043L50.8576 17.7109L49.6649 18.66L49.3623 20.1534L50.555 19.2043Z" fill="#48FF91" stroke="#0500FF" stroke-width="0.25" stroke-linecap="round" stroke-linejoin="round"></path><path d="M46.0103 18.0988L46.3148 16.6055L49.665 18.6588L49.3624 20.1522L46.0103 18.0988Z" fill="#0500FF" stroke="#0500FF" stroke-width="0.25" stroke-linecap="round" stroke-linejoin="round"></path><path d="M47.5067 15.6582L46.314 16.6073L49.6642 18.6606L50.8569 17.7116L47.5067 15.6582Z" fill="#48FF91" stroke="#0500FF" stroke-width="0.25" stroke-linecap="round" stroke-linejoin="round"></path><path d="M69.6558 61.3047L73.1868 64.6097L74.2341 62.4011L69.6558 61.3047Z" fill="#9EFF00" stroke="#0500FF" stroke-width="0.25" stroke-linecap="round" stroke-linejoin="round"></path><path d="M69.6558 61.3047L73.1868 64.6097L70.9664 65.6276L69.6558 61.3047Z" fill="#00874E" stroke="#0500FF" stroke-width="0.25" stroke-linecap="round" stroke-linejoin="round"></path><path d="M72.0141 63.4221L70.9668 65.6288L73.1872 64.6109L74.2345 62.4023L72.0141 63.4221Z" fill="#0500FF" stroke="#0500FF" stroke-width="0.25" stroke-linecap="round" stroke-linejoin="round"></path></g><defs><clipPath id="clip0_25_36816"><rect width="96" height="97.92" fill="white" transform="translate(0.668945)"></rect></clipPath></defs></svg>